# MagicaVoxel @ Ephtracy

# material
mtllib catto.mtl
usemtl palette

# normals
vn -1 0 0
vn 1 0 0
vn 0 0 1
vn 0 0 -1
vn 0 -1 0
vn 0 1 0

# texcoords
vt 0.00195313 0.5
vt 0.751953 0.5
vt 0.970703 0.5
vt 0.982422 0.5
vt 0.986328 0.5
vt 0.990234 0.5
vt 0.994141 0.5

# verts
v -3 0 3
v -3 0 -3
v -3 2 -0
v -3 2 -1
v -3 3 1
v -3 3 -0
v -3 3 -1
v -3 4 1
v -3 4 -0
v -3 4 -2
v -3 4 -3
v -3 5 -1
v -3 5 -2
v -3 5 -3
v -3 6 3
v -3 6 2
v -3 6 -1
v -3 6 -2
v -3 7 3
v -3 7 2
v -3 7 -1
v -3 7 -2
v -3 7 -3
v -3 8 3
v -3 8 2
v -3 9 3
v -3 9 2
v -3 9 1
v -3 9 -2
v -3 10 3
v -3 10 1
v -3 10 -3
v -2 10 -1
v -2 10 -3
v -2 11 -1
v -2 11 -3
v -1 9 -1
v -1 9 -2
v -1 10 -1
v -1 10 -2
v 1 10 -1
v 1 10 -2
v 1 10 -3
v 1 11 -1
v 1 11 -3
v 2 0 2
v 2 0 -2
v 2 2 2
v 2 2 -0
v 2 2 -1
v 2 2 -2
v 2 3 1
v 2 3 -0
v 2 3 -1
v 2 4 1
v 2 4 -0
v 2 5 -1
v 2 5 -2
v 2 6 2
v 2 6 -1
v 2 6 -2
v 2 7 2
v 2 7 -1
v 2 7 -2
v 2 8 2
v 2 9 2
v 2 9 -1
v 2 9 -2
v 2 10 -1
v 2 10 -2
v -2 0 2
v -2 0 -2
v -2 2 2
v -2 2 -0
v -2 2 -1
v -2 2 -2
v -2 3 1
v -2 3 -0
v -2 3 -1
v -2 4 1
v -2 4 -0
v -2 5 -1
v -2 5 -2
v -2 6 2
v -2 6 -1
v -2 6 -2
v -2 7 2
v -2 7 -1
v -2 7 -2
v -2 8 2
v -2 9 2
v -2 9 -1
v -2 9 -2
v -2 10 -1
v -2 10 -2
v -1 10 -1
v -1 10 -2
v -1 10 -3
v -1 11 -1
v -1 11 -3
v 1 9 -1
v 1 9 -2
v 1 10 -1
v 1 10 -2
v 2 10 -1
v 2 10 -3
v 2 11 -1
v 2 11 -3
v 3 0 3
v 3 0 -3
v 3 2 -0
v 3 2 -1
v 3 3 1
v 3 3 -0
v 3 3 -1
v 3 4 1
v 3 4 -0
v 3 4 -2
v 3 4 -3
v 3 5 -1
v 3 5 -2
v 3 5 -3
v 3 6 3
v 3 6 2
v 3 6 -1
v 3 6 -2
v 3 7 3
v 3 7 2
v 3 7 -1
v 3 7 -2
v 3 7 -3
v 3 8 3
v 3 8 2
v 3 9 3
v 3 9 2
v 3 9 1
v 3 9 -2
v 3 10 3
v 3 10 1
v 3 10 -3
v -3 0 3
v -3 6 3
v -3 7 3
v -3 8 3
v -3 9 3
v -3 10 3
v -2 2 3
v -2 6 3
v -2 7 3
v -2 8 3
v -2 9 3
v -1 8 3
v -1 9 3
v 1 8 3
v 1 9 3
v 2 2 3
v 2 6 3
v 2 7 3
v 2 8 3
v 2 9 3
v 3 0 3
v 3 6 3
v 3 7 3
v 3 8 3
v 3 9 3
v 3 10 3
v -2 10 -1
v -2 11 -1
v -1 10 -1
v -1 11 -1
v 1 10 -1
v 1 11 -1
v 2 10 -1
v 2 11 -1
v -2 0 -2
v -2 2 -2
v -2 5 -2
v -2 6 -2
v -2 7 -2
v -2 9 -2
v -2 10 -2
v -1 9 -2
v -1 10 -2
v 1 9 -2
v 1 10 -2
v 2 0 -2
v 2 2 -2
v 2 5 -2
v 2 6 -2
v 2 7 -2
v 2 9 -2
v 2 10 -2
v -2 0 2
v -2 2 2
v -2 6 2
v -2 7 2
v -2 8 2
v -2 9 2
v -1 8 2
v -1 9 2
v 1 8 2
v 1 9 2
v 2 0 2
v 2 2 2
v 2 6 2
v 2 7 2
v 2 8 2
v 2 9 2
v -2 9 -1
v -2 10 -1
v -1 9 -1
v -1 10 -1
v 1 9 -1
v 1 10 -1
v 2 9 -1
v 2 10 -1
v -3 0 -3
v -3 4 -3
v -3 5 -3
v -3 7 -3
v -3 10 -3
v -2 2 -3
v -2 4 -3
v -2 5 -3
v -2 6 -3
v -2 7 -3
v -2 10 -3
v -2 11 -3
v -1 10 -3
v -1 11 -3
v 1 10 -3
v 1 11 -3
v 2 2 -3
v 2 4 -3
v 2 5 -3
v 2 6 -3
v 2 7 -3
v 2 10 -3
v 2 11 -3
v 3 0 -3
v 3 4 -3
v 3 5 -3
v 3 7 -3
v 3 10 -3
v -3 0 3
v 3 0 3
v -2 0 2
v 2 0 2
v -2 0 -2
v 2 0 -2
v -3 0 -3
v 3 0 -3
v -2 9 2
v -1 9 2
v 1 9 2
v 2 9 2
v -2 9 -1
v -1 9 -1
v 1 9 -1
v 2 9 -1
v -1 9 -2
v 1 9 -2
v -2 10 -1
v -1 10 -1
v 1 10 -1
v 2 10 -1
v -2 10 -2
v -1 10 -2
v 1 10 -2
v 2 10 -2
v -3 10 3
v 3 10 3
v -3 10 1
v -2 10 1
v 2 10 1
v 3 10 1
v -2 10 -1
v -1 10 -1
v 1 10 -1
v 2 10 -1
v -1 10 -2
v 1 10 -2
v -3 10 -3
v -2 10 -3
v -1 10 -3
v 1 10 -3
v 2 10 -3
v 3 10 -3
v -2 11 -1
v -1 11 -1
v 1 11 -1
v 2 11 -1
v -2 11 -3
v -1 11 -3
v 1 11 -3
v 2 11 -3

# faces
f 3/3/1 2/3/1 1/3/1
f 4/3/1 2/3/1 3/3/1
f 5/3/1 3/3/1 1/3/1
f 6/4/1 4/4/1 3/4/1
f 6/3/1 3/3/1 5/3/1
f 7/3/1 2/3/1 4/3/1
f 7/4/1 4/4/1 6/4/1
f 8/4/1 6/4/1 5/4/1
f 8/3/1 5/3/1 1/3/1
f 9/3/1 7/3/1 6/3/1
f 9/4/1 6/4/1 8/4/1
f 10/3/1 2/3/1 7/3/1
f 10/3/1 7/3/1 9/3/1
f 11/3/1 2/3/1 10/3/1
f 12/3/1 9/3/1 8/3/1
f 12/3/1 10/3/1 9/3/1
f 13/5/1 11/5/1 10/5/1
f 13/3/1 10/3/1 12/3/1
f 14/5/1 11/5/1 13/5/1
f 15/3/1 8/3/1 1/3/1
f 15/3/1 12/3/1 8/3/1
f 16/3/1 12/3/1 15/3/1
f 17/5/1 13/5/1 12/5/1
f 17/3/1 12/3/1 16/3/1
f 18/4/1 14/4/1 13/4/1
f 18/5/1 13/5/1 17/5/1
f 19/4/1 16/4/1 15/4/1
f 20/5/1 17/5/1 16/5/1
f 20/4/1 16/4/1 19/4/1
f 21/4/1 18/4/1 17/4/1
f 21/5/1 17/5/1 20/5/1
f 22/4/1 14/4/1 18/4/1
f 22/4/1 18/4/1 21/4/1
f 23/4/1 14/4/1 22/4/1
f 24/6/1 21/6/1 20/6/1
f 24/6/1 20/6/1 19/6/1
f 24/6/1 22/6/1 21/6/1
f 25/6/1 22/6/1 24/6/1
f 26/1/1 25/1/1 24/1/1
f 27/6/1 22/6/1 25/6/1
f 27/1/1 25/1/1 26/1/1
f 28/6/1 22/6/1 27/6/1
f 29/5/1 23/5/1 22/5/1
f 29/6/1 22/6/1 28/6/1
f 30/6/1 28/6/1 27/6/1
f 30/6/1 27/6/1 26/6/1
f 31/5/1 29/5/1 28/5/1
f 31/6/1 28/6/1 30/6/1
f 32/5/1 23/5/1 29/5/1
f 32/5/1 29/5/1 31/5/1
f 35/7/1 34/7/1 33/7/1
f 36/7/1 34/7/1 35/7/1
f 39/6/1 38/6/1 37/6/1
f 40/6/1 38/6/1 39/6/1
f 44/7/1 42/7/1 41/7/1
f 44/7/1 43/7/1 42/7/1
f 45/7/1 43/7/1 44/7/1
f 48/3/1 47/3/1 46/3/1
f 49/3/1 47/3/1 48/3/1
f 50/3/1 47/3/1 49/3/1
f 51/3/1 47/3/1 50/3/1
f 52/3/1 49/3/1 48/3/1
f 53/4/1 50/4/1 49/4/1
f 53/3/1 49/3/1 52/3/1
f 54/3/1 51/3/1 50/3/1
f 54/4/1 50/4/1 53/4/1
f 55/3/1 52/3/1 48/3/1
f 55/4/1 53/4/1 52/4/1
f 56/3/1 54/3/1 53/3/1
f 56/4/1 53/4/1 55/4/1
f 57/3/1 51/3/1 54/3/1
f 57/3/1 54/3/1 56/3/1
f 57/3/1 56/3/1 55/3/1
f 58/3/1 51/3/1 57/3/1
f 59/3/1 55/3/1 48/3/1
f 59/3/1 57/3/1 55/3/1
f 60/5/1 58/5/1 57/5/1
f 60/3/1 57/3/1 59/3/1
f 61/5/1 58/5/1 60/5/1
f 62/5/1 60/5/1 59/5/1
f 63/4/1 61/4/1 60/4/1
f 63/5/1 60/5/1 62/5/1
f 64/4/1 61/4/1 63/4/1
f 65/6/1 63/6/1 62/6/1
f 65/6/1 64/6/1 63/6/1
f 66/6/1 64/6/1 65/6/1
f 67/6/1 64/6/1 66/6/1
f 68/6/1 64/6/1 67/6/1
f 69/5/1 68/5/1 67/5/1
f 70/5/1 68/5/1 69/5/1
f 71/3/2 72/3/2 73/3/2
f 73/3/2 72/3/2 74/3/2
f 74/3/2 72/3/2 75/3/2
f 75/3/2 72/3/2 76/3/2
f 73/3/2 74/3/2 77/3/2
f 74/4/2 75/4/2 78/4/2
f 77/3/2 74/3/2 78/3/2
f 75/3/2 76/3/2 79/3/2
f 78/4/2 75/4/2 79/4/2
f 73/3/2 77/3/2 80/3/2
f 77/4/2 78/4/2 80/4/2
f 78/3/2 79/3/2 81/3/2
f 80/4/2 78/4/2 81/4/2
f 79/3/2 76/3/2 82/3/2
f 81/3/2 79/3/2 82/3/2
f 80/3/2 81/3/2 82/3/2
f 82/3/2 76/3/2 83/3/2
f 73/3/2 80/3/2 84/3/2
f 80/3/2 82/3/2 84/3/2
f 82/5/2 83/5/2 85/5/2
f 84/3/2 82/3/2 85/3/2
f 85/5/2 83/5/2 86/5/2
f 84/5/2 85/5/2 87/5/2
f 85/4/2 86/4/2 88/4/2
f 87/5/2 85/5/2 88/5/2
f 88/4/2 86/4/2 89/4/2
f 87/6/2 88/6/2 90/6/2
f 88/6/2 89/6/2 90/6/2
f 90/6/2 89/6/2 91/6/2
f 91/6/2 89/6/2 92/6/2
f 92/6/2 89/6/2 93/6/2
f 92/5/2 93/5/2 94/5/2
f 94/5/2 93/5/2 95/5/2
f 96/7/2 97/7/2 99/7/2
f 97/7/2 98/7/2 99/7/2
f 99/7/2 98/7/2 100/7/2
f 101/6/2 102/6/2 103/6/2
f 103/6/2 102/6/2 104/6/2
f 105/7/2 106/7/2 107/7/2
f 107/7/2 106/7/2 108/7/2
f 109/3/2 110/3/2 111/3/2
f 111/3/2 110/3/2 112/3/2
f 109/3/2 111/3/2 113/3/2
f 111/4/2 112/4/2 114/4/2
f 113/3/2 111/3/2 114/3/2
f 112/3/2 110/3/2 115/3/2
f 114/4/2 112/4/2 115/4/2
f 113/4/2 114/4/2 116/4/2
f 109/3/2 113/3/2 116/3/2
f 114/3/2 115/3/2 117/3/2
f 116/4/2 114/4/2 117/4/2
f 115/3/2 110/3/2 118/3/2
f 117/3/2 115/3/2 118/3/2
f 118/3/2 110/3/2 119/3/2
f 116/3/2 117/3/2 120/3/2
f 117/3/2 118/3/2 120/3/2
f 118/5/2 119/5/2 121/5/2
f 120/3/2 118/3/2 121/3/2
f 121/5/2 119/5/2 122/5/2
f 109/3/2 116/3/2 123/3/2
f 116/3/2 120/3/2 123/3/2
f 123/3/2 120/3/2 124/3/2
f 120/5/2 121/5/2 125/5/2
f 124/3/2 120/3/2 125/3/2
f 121/4/2 122/4/2 126/4/2
f 125/5/2 121/5/2 126/5/2
f 123/4/2 124/4/2 127/4/2
f 124/5/2 125/5/2 128/5/2
f 127/4/2 124/4/2 128/4/2
f 125/4/2 126/4/2 129/4/2
f 128/5/2 125/5/2 129/5/2
f 126/4/2 122/4/2 130/4/2
f 129/4/2 126/4/2 130/4/2
f 130/4/2 122/4/2 131/4/2
f 128/6/2 129/6/2 132/6/2
f 127/6/2 128/6/2 132/6/2
f 129/6/2 130/6/2 132/6/2
f 132/6/2 130/6/2 133/6/2
f 132/1/2 133/1/2 134/1/2
f 133/6/2 130/6/2 135/6/2
f 134/1/2 133/1/2 135/1/2
f 135/6/2 130/6/2 136/6/2
f 130/5/2 131/5/2 137/5/2
f 136/6/2 130/6/2 137/6/2
f 135/6/2 136/6/2 138/6/2
f 134/6/2 135/6/2 138/6/2
f 136/5/2 137/5/2 139/5/2
f 138/6/2 136/6/2 139/6/2
f 137/5/2 131/5/2 140/5/2
f 139/5/2 137/5/2 140/5/2
f 147/3/3 142/3/3 141/3/3
f 148/4/3 143/4/3 142/4/3
f 148/3/3 142/3/3 147/3/3
f 149/6/3 144/6/3 143/6/3
f 149/4/3 143/4/3 148/4/3
f 150/1/3 145/1/3 144/1/3
f 150/6/3 144/6/3 149/6/3
f 151/6/3 146/6/3 145/6/3
f 151/1/3 145/1/3 150/1/3
f 152/6/3 150/6/3 149/6/3
f 152/2/3 151/2/3 150/2/3
f 153/6/3 146/6/3 151/6/3
f 153/2/3 151/2/3 152/2/3
f 154/6/3 152/6/3 149/6/3
f 154/6/3 153/6/3 152/6/3
f 155/6/3 146/6/3 153/6/3
f 155/6/3 153/6/3 154/6/3
f 156/3/3 147/3/3 141/3/3
f 156/4/3 148/4/3 147/4/3
f 157/5/3 149/5/3 148/5/3
f 157/4/3 148/4/3 156/4/3
f 158/6/3 154/6/3 149/6/3
f 158/5/3 149/5/3 157/5/3
f 159/2/3 155/2/3 154/2/3
f 159/6/3 154/6/3 158/6/3
f 160/6/3 146/6/3 155/6/3
f 160/2/3 155/2/3 159/2/3
f 161/3/3 157/3/3 156/3/3
f 161/3/3 156/3/3 141/3/3
f 162/4/3 158/4/3 157/4/3
f 162/3/3 157/3/3 161/3/3
f 163/6/3 159/6/3 158/6/3
f 163/4/3 158/4/3 162/4/3
f 164/1/3 160/1/3 159/1/3
f 164/6/3 159/6/3 163/6/3
f 165/6/3 146/6/3 160/6/3
f 165/1/3 160/1/3 164/1/3
f 166/6/3 146/6/3 165/6/3
f 169/7/3 168/7/3 167/7/3
f 170/7/3 168/7/3 169/7/3
f 173/7/3 172/7/3 171/7/3
f 174/7/3 172/7/3 173/7/3
f 182/5/3 179/5/3 178/5/3
f 182/5/3 181/5/3 180/5/3
f 182/5/3 180/5/3 179/5/3
f 183/5/3 181/5/3 182/5/3
f 184/5/3 182/5/3 178/5/3
f 186/3/3 176/3/3 175/3/3
f 187/4/3 177/4/3 176/4/3
f 187/3/3 176/3/3 186/3/3
f 187/4/3 178/4/3 177/4/3
f 188/4/3 178/4/3 187/4/3
f 189/5/3 185/5/3 184/5/3
f 189/4/3 178/4/3 188/4/3
f 189/5/3 184/5/3 178/5/3
f 190/5/3 185/5/3 189/5/3
f 191/5/3 185/5/3 190/5/3
f 192/5/3 185/5/3 191/5/3
f 196/6/4 197/6/4 199/6/4
f 197/2/4 198/2/4 199/2/4
f 199/2/4 198/2/4 200/2/4
f 196/6/4 199/6/4 201/6/4
f 199/6/4 200/6/4 201/6/4
f 201/6/4 200/6/4 202/6/4
f 193/3/4 194/3/4 203/3/4
f 194/4/4 195/4/4 204/4/4
f 203/3/4 194/3/4 204/3/4
f 195/5/4 196/5/4 205/5/4
f 204/4/4 195/4/4 205/4/4
f 196/6/4 201/6/4 206/6/4
f 205/5/4 196/5/4 206/5/4
f 201/2/4 202/2/4 207/2/4
f 206/6/4 201/6/4 207/6/4
f 207/2/4 202/2/4 208/2/4
f 209/6/4 210/6/4 211/6/4
f 211/6/4 210/6/4 212/6/4
f 213/6/4 214/6/4 215/6/4
f 215/6/4 214/6/4 216/6/4
f 217/3/4 218/3/4 222/3/4
f 218/5/4 219/5/4 223/5/4
f 222/3/4 218/3/4 223/3/4
f 219/4/4 220/4/4 224/4/4
f 223/5/4 219/5/4 224/5/4
f 224/4/4 220/4/4 225/4/4
f 220/5/4 221/5/4 226/5/4
f 225/4/4 220/4/4 226/4/4
f 226/5/4 221/5/4 227/5/4
f 225/5/4 226/5/4 229/5/4
f 227/7/4 228/7/4 229/7/4
f 226/5/4 227/5/4 229/5/4
f 229/7/4 228/7/4 230/7/4
f 225/5/4 229/5/4 231/5/4
f 224/4/4 225/4/4 233/4/4
f 217/3/4 222/3/4 233/3/4
f 222/4/4 223/4/4 233/4/4
f 223/4/4 224/4/4 233/4/4
f 233/4/4 225/4/4 234/4/4
f 234/4/4 225/4/4 235/4/4
f 225/5/4 231/5/4 236/5/4
f 235/4/4 225/4/4 236/4/4
f 236/5/4 231/5/4 237/5/4
f 231/7/4 232/7/4 238/7/4
f 237/5/4 231/5/4 238/5/4
f 238/7/4 232/7/4 239/7/4
f 217/3/4 233/3/4 240/3/4
f 233/3/4 234/3/4 240/3/4
f 234/5/4 235/5/4 241/5/4
f 240/3/4 234/3/4 241/3/4
f 236/4/4 237/4/4 242/4/4
f 241/5/4 235/5/4 242/5/4
f 235/4/4 236/4/4 242/4/4
f 237/5/4 238/5/4 243/5/4
f 242/4/4 237/4/4 243/4/4
f 243/5/4 238/5/4 244/5/4
f 247/3/5 246/3/5 245/3/5
f 248/3/5 246/3/5 247/3/5
f 249/3/5 247/3/5 245/3/5
f 250/3/5 246/3/5 248/3/5
f 251/3/5 249/3/5 245/3/5
f 251/3/5 250/3/5 249/3/5
f 252/3/5 246/3/5 250/3/5
f 252/3/5 250/3/5 251/3/5
f 257/6/5 254/6/5 253/6/5
f 257/6/5 256/6/5 255/6/5
f 257/6/5 255/6/5 254/6/5
f 258/6/5 256/6/5 257/6/5
f 259/6/5 256/6/5 258/6/5
f 260/6/5 256/6/5 259/6/5
f 261/6/5 259/6/5 258/6/5
f 262/6/5 259/6/5 261/6/5
f 267/7/5 264/7/5 263/7/5
f 268/7/5 264/7/5 267/7/5
f 269/7/5 266/7/5 265/7/5
f 270/7/5 266/7/5 269/7/5
f 271/6/6 272/6/6 273/6/6
f 273/6/6 272/6/6 274/6/6
f 274/6/6 272/6/6 275/6/6
f 275/6/6 272/6/6 276/6/6
f 273/5/6 274/5/6 277/5/6
f 274/6/6 275/6/6 277/6/6
f 277/6/6 275/6/6 278/6/6
f 278/6/6 275/6/6 279/6/6
f 275/5/6 276/5/6 280/5/6
f 279/6/6 275/6/6 280/6/6
f 278/6/6 279/6/6 281/6/6
f 281/6/6 279/6/6 282/6/6
f 273/5/6 277/5/6 283/5/6
f 283/5/6 277/5/6 284/5/6
f 281/5/6 282/5/6 285/5/6
f 285/5/6 282/5/6 286/5/6
f 280/5/6 276/5/6 287/5/6
f 287/5/6 276/5/6 288/5/6
f 289/7/6 290/7/6 293/7/6
f 293/7/6 290/7/6 294/7/6
f 291/7/6 292/7/6 295/7/6
f 295/7/6 292/7/6 296/7/6
