# MagicaVoxel @ Ephtracy

# material
mtllib road2.mtl
usemtl palette

# normals
vn -1 0 0
vn 1 0 0
vn 0 0 1
vn 0 0 -1
vn 0 -1 0
vn 0 1 0

# texcoords
vt 0.0214844 0.5
vt 0.970703 0.5
vt 0.994141 0.5

# verts
v -10 0 10
v -10 0 -10
v -10 1 10
v -10 1 -10
v -10 2 10
v -10 2 -10
v -9 1 10
v -9 1 -9
v -9 2 10
v -9 2 -9
v 10 0 10
v 10 0 1
v 10 0 -1
v 10 0 -10
v 10 1 10
v 10 1 1
v 10 1 -1
v 10 1 -9
v 10 1 -10
v 10 2 -9
v 10 2 -10
v -10 0 10
v -10 1 10
v -10 2 10
v -9 1 10
v -9 2 10
v -1 0 10
v -1 1 10
v 1 0 10
v 1 1 10
v 10 0 10
v 10 1 10
v -9 1 -9
v -9 2 -9
v 10 1 -9
v 10 2 -9
v -10 0 -10
v -10 1 -10
v -10 2 -10
v 10 0 -10
v 10 1 -10
v 10 2 -10
v -10 0 10
v -1 0 10
v 1 0 10
v 10 0 10
v -1 0 6
v 1 0 6
v -1 0 5
v 1 0 5
v -1 0 1
v 1 0 1
v 2 0 1
v 6 0 1
v 7 0 1
v 10 0 1
v 2 0 -1
v 6 0 -1
v 7 0 -1
v 10 0 -1
v -10 0 -10
v 10 0 -10
v -9 1 10
v -1 1 10
v 1 1 10
v 10 1 10
v -1 1 6
v 1 1 6
v -1 1 5
v 1 1 5
v -1 1 1
v 1 1 1
v 2 1 1
v 6 1 1
v 7 1 1
v 10 1 1
v 2 1 -1
v 6 1 -1
v 7 1 -1
v 10 1 -1
v -9 1 -9
v 10 1 -9
v -10 2 10
v -9 2 10
v -9 2 -9
v 10 2 -9
v -10 2 -10
v 10 2 -10

# faces
f 3/3/1 2/3/1 1/3/1
f 4/3/1 2/3/1 3/3/1
f 5/2/1 4/2/1 3/2/1
f 6/2/1 4/2/1 5/2/1
f 7/2/2 8/2/2 9/2/2
f 9/2/2 8/2/2 10/2/2
f 11/3/2 12/3/2 15/3/2
f 12/1/2 13/1/2 16/1/2
f 15/3/2 12/3/2 16/3/2
f 13/3/2 14/3/2 17/3/2
f 16/1/2 13/1/2 17/1/2
f 17/3/2 14/3/2 18/3/2
f 18/3/2 14/3/2 19/3/2
f 18/2/2 19/2/2 20/2/2
f 20/2/2 19/2/2 21/2/2
f 25/3/3 23/3/3 22/3/3
f 25/2/3 24/2/3 23/2/3
f 26/2/3 24/2/3 25/2/3
f 27/3/3 25/3/3 22/3/3
f 28/3/3 25/3/3 27/3/3
f 29/1/3 28/1/3 27/1/3
f 30/1/3 28/1/3 29/1/3
f 31/3/3 30/3/3 29/3/3
f 32/3/3 30/3/3 31/3/3
f 35/2/3 34/2/3 33/2/3
f 36/2/3 34/2/3 35/2/3
f 37/3/4 38/3/4 40/3/4
f 38/2/4 39/2/4 41/2/4
f 40/3/4 38/3/4 41/3/4
f 41/2/4 39/2/4 42/2/4
f 47/3/5 44/3/5 43/3/5
f 47/1/5 45/1/5 44/1/5
f 48/3/5 46/3/5 45/3/5
f 48/1/5 45/1/5 47/1/5
f 49/3/5 47/3/5 43/3/5
f 49/3/5 48/3/5 47/3/5
f 50/3/5 46/3/5 48/3/5
f 50/3/5 48/3/5 49/3/5
f 51/3/5 49/3/5 43/3/5
f 51/1/5 50/1/5 49/1/5
f 52/3/5 46/3/5 50/3/5
f 52/1/5 50/1/5 51/1/5
f 53/3/5 46/3/5 52/3/5
f 54/3/5 46/3/5 53/3/5
f 55/3/5 46/3/5 54/3/5
f 56/3/5 46/3/5 55/3/5
f 57/3/5 52/3/5 51/3/5
f 57/3/5 53/3/5 52/3/5
f 57/1/5 54/1/5 53/1/5
f 58/3/5 55/3/5 54/3/5
f 58/1/5 54/1/5 57/1/5
f 59/1/5 56/1/5 55/1/5
f 59/3/5 55/3/5 58/3/5
f 60/1/5 56/1/5 59/1/5
f 61/3/5 51/3/5 43/3/5
f 61/3/5 58/3/5 57/3/5
f 61/3/5 60/3/5 59/3/5
f 61/3/5 59/3/5 58/3/5
f 61/3/5 57/3/5 51/3/5
f 62/3/5 60/3/5 61/3/5
f 63/3/6 64/3/6 67/3/6
f 64/1/6 65/1/6 67/1/6
f 65/3/6 66/3/6 68/3/6
f 67/1/6 65/1/6 68/1/6
f 63/3/6 67/3/6 69/3/6
f 67/3/6 68/3/6 69/3/6
f 68/3/6 66/3/6 70/3/6
f 69/3/6 68/3/6 70/3/6
f 63/3/6 69/3/6 71/3/6
f 69/1/6 70/1/6 71/1/6
f 70/3/6 66/3/6 72/3/6
f 71/1/6 70/1/6 72/1/6
f 72/3/6 66/3/6 73/3/6
f 73/3/6 66/3/6 74/3/6
f 74/3/6 66/3/6 75/3/6
f 75/3/6 66/3/6 76/3/6
f 71/3/6 72/3/6 77/3/6
f 72/3/6 73/3/6 77/3/6
f 73/1/6 74/1/6 77/1/6
f 74/3/6 75/3/6 78/3/6
f 77/1/6 74/1/6 78/1/6
f 75/1/6 76/1/6 79/1/6
f 78/3/6 75/3/6 79/3/6
f 79/1/6 76/1/6 80/1/6
f 63/3/6 71/3/6 81/3/6
f 77/3/6 78/3/6 81/3/6
f 79/3/6 80/3/6 81/3/6
f 78/3/6 79/3/6 81/3/6
f 71/3/6 77/3/6 81/3/6
f 81/3/6 80/3/6 82/3/6
f 83/2/6 84/2/6 85/2/6
f 83/2/6 85/2/6 87/2/6
f 85/2/6 86/2/6 87/2/6
f 87/2/6 86/2/6 88/2/6
