# MagicaVoxel @ Ephtracy

# material
mtllib road 1 arreglada.mtl
usemtl palette

# normals
vn -1 0 0
vn 1 0 0
vn 0 0 1
vn 0 0 -1
vn 0 -1 0
vn 0 1 0

# texcoords
vt 0.970703 0.5
vt 0.994141 0.5

# verts
v -10 0 10
v -10 0 -10
v -10 1 10
v -10 1 -10
v -10 2 10
v -10 2 -10
v 9 1 10
v 9 1 -10
v 9 2 10
v 9 2 -10
v -9 1 10
v -9 1 -10
v -9 2 10
v -9 2 -10
v 10 0 10
v 10 0 -10
v 10 1 10
v 10 1 -10
v 10 2 10
v 10 2 -10
v -10 0 10
v -10 1 10
v -10 2 10
v -9 1 10
v -9 2 10
v 9 1 10
v 9 2 10
v 10 0 10
v 10 1 10
v 10 2 10
v -10 0 -10
v -10 1 -10
v -10 2 -10
v -9 1 -10
v -9 2 -10
v 9 1 -10
v 9 2 -10
v 10 0 -10
v 10 1 -10
v 10 2 -10
v -10 0 10
v 10 0 10
v -10 0 -10
v 10 0 -10
v -9 1 10
v 9 1 10
v -9 1 -10
v 9 1 -10
v -10 2 10
v -9 2 10
v 9 2 10
v 10 2 10
v -10 2 -10
v -9 2 -10
v 9 2 -10
v 10 2 -10

# faces
f 3/2/1 2/2/1 1/2/1
f 4/2/1 2/2/1 3/2/1
f 5/1/1 4/1/1 3/1/1
f 6/1/1 4/1/1 5/1/1
f 9/1/1 8/1/1 7/1/1
f 10/1/1 8/1/1 9/1/1
f 11/1/2 12/1/2 13/1/2
f 13/1/2 12/1/2 14/1/2
f 15/2/2 16/2/2 17/2/2
f 17/2/2 16/2/2 18/2/2
f 17/1/2 18/1/2 19/1/2
f 19/1/2 18/1/2 20/1/2
f 24/2/3 22/2/3 21/2/3
f 24/1/3 23/1/3 22/1/3
f 25/1/3 23/1/3 24/1/3
f 26/2/3 24/2/3 21/2/3
f 28/2/3 26/2/3 21/2/3
f 29/1/3 27/1/3 26/1/3
f 29/2/3 26/2/3 28/2/3
f 30/1/3 27/1/3 29/1/3
f 31/2/4 32/2/4 34/2/4
f 32/1/4 33/1/4 34/1/4
f 34/1/4 33/1/4 35/1/4
f 31/2/4 34/2/4 36/2/4
f 31/2/4 36/2/4 38/2/4
f 36/1/4 37/1/4 39/1/4
f 38/2/4 36/2/4 39/2/4
f 39/1/4 37/1/4 40/1/4
f 43/2/5 42/2/5 41/2/5
f 44/2/5 42/2/5 43/2/5
f 45/2/6 46/2/6 47/2/6
f 47/2/6 46/2/6 48/2/6
f 49/1/6 50/1/6 53/1/6
f 53/1/6 50/1/6 54/1/6
f 51/1/6 52/1/6 55/1/6
f 55/1/6 52/1/6 56/1/6
